<?xml version="1.0" encoding="utf-8"?>
<!-- Generator: Adobe Illustrator 25.4.1, SVG Export Plug-In . SVG Version: 6.00 Build 0)  -->
<svg version="1.1" xmlns="http://www.w3.org/2000/svg" xmlns:xlink="http://www.w3.org/1999/xlink" x="0px" y="0px"
	 viewBox="0 0 634 137" style="enable-background:new 0 0 634 137;" xml:space="preserve">
<style type="text/css">
	.st0{fill:#FDC300;}
	.st1{fill:#43E341;}
	.st2{fill:#00BC74;}
	.st3{fill:#26A3D7;}
	.st4{fill:#C8117D;}
	.st5{fill:#3D3DE3;}
	.st6{fill:#7E02C9;}
	.st7{display:none;}
	.st8{display:inline;}
	.st9{fill:#7307C4;}
	.st10{fill:#C40773;}
	.st11{fill:#E33D3D;}
	.st12{fill:#C47307;}
	.st13{fill:#FFC000;}
	.st14{fill:#3DE33D;}
	.st15{fill:#07B86C;}
</style>
<g id="Ebene_1">
	<g>
		<path d="M175.2,91.3c-0.8,1.4-3.4,2.2-4.6,2.2c-3,0-2.2-6.2-2.1-8.3c-2.3,1.6-7.4,5.8-9,7.2c-0.9,0.8-2,0.9-2.8,0.9
			c-1.2,0-2.9-0.4-3.4-1.2c-0.6-0.9,0.4-6.9,0.7-8.6c-3.9,3.8-8,8.2-9.9,10.3c-0.7,0.8-2,0.9-2.6,0.9c-1.1,0-2.2-0.6-2-1.6
			c0.3-1.5,15.6-18,16.9-19.1c1.3-1.1,3.2-2.1,4.5-2.1c1,0,1.8,0.5,1.8,1.6c-0.1,0.6-0.2,1.5-0.4,2.5c-0.6,3.1-1.3,6.3-1.5,9.4
			c3-2,6.5-4.4,7.7-5.4c1.4-1,4-2.1,5.5-2.1c0.4,0,0.9,0,1.2,0.4c0.8,0.6,0.8,9.2,0.2,12.1C175.5,90.6,175.4,91,175.2,91.3z"/>
		<path d="M192.9,78.2c-1,4.4-5.1,15.3-6.9,16.3c-0.4,0.2-0.9,0.4-1.3,0.4c-1.2,0-2-2.1-2.1-3.1c-0.1-0.6,0-1.7,0.3-2.9
			c0.9-4.3,3.6-12.6,4.6-13.8c0.7-0.8,1.9-0.9,2.5-0.9c1.1,0,3,0.4,3.2,1.9C193.1,76.6,193,77.4,192.9,78.2z"/>
		<path d="M222.3,70.6c-2.7,0.7-19.3,12.4-21.2,21.2c-0.1,0.4,0.2,1.1,0.6,1.1c2.6,0,10-3.8,12.3-6.1c0.6-0.6,1.2-0.8,1.9-0.8
			c1.3,0,2.1,1,1.8,2.5c-0.8,3.4-10.3,8-14.1,9.2c-0.8,0.2-1.5,0.4-2.3,0.4c-4.6,0-7.1-3-6.2-7.3c1.5-7.1,16.2-24.2,26-24.2
			c1.5,0,3.2,1,2.9,2.5C223.7,69.9,223,70.4,222.3,70.6z"/>
		<path d="M252.1,82.1c-1.2,3.4-2.4,7-3.4,9.9c-1,2.6-1.9,5.2-2.6,6c-0.5,0.6-1.1,0.8-1.6,0.8c-1.2,0-3.6-1.6-3.4-3
			c0.2-1.2,0.8-2.3,1.2-3.5c0.3-0.9,0.7-1.9,1-2.8L229,91.8c-0.4,1.2-0.6,2.3-1,3.5c-0.3,0.9-0.9,1.8-2.2,1.8c-1.1,0-2.6-0.7-2.9-2
			c-0.2-0.8,0-2.6,0.5-4.6c1.1-5.3,3.9-14.6,5.6-16.3c0.5-0.6,1.1-0.7,1.6-0.7c1.5,0,3.6,1.6,3.2,3.2c-0.2,1.2-2,6.5-2.9,9.1
			c3.8-0.7,14.7-2.2,14.7-2.2s0.1-0.6,0.3-1c0.9-2.8,3.2-10.8,4.7-13c0.5-0.7,1.2-0.9,1.8-0.9c1.6,0,3.5,1.7,3.1,3.4
			C255.2,73.5,253.7,77.6,252.1,82.1z"/>
		<path d="M280.3,96.4c-1.3,0-2.9-0.6-3.4-1.7c-0.3-0.9,0.1-5.3,0.2-6.7c-4.9,1.2-11.4,2.1-13.4,2.3c-2.5,3-4.6,6.2-6.9,9.3
			c-0.6,0.8-1.1,1.4-1.4,1.7c-0.7,0.7-2.5,1.2-3.4,1.2c-1,0-1.6-0.5-1.4-1.5c1.4-5.4,23-32.2,24.5-33c1.5-0.9,3.2-1.2,4.5-1.2
			c1,0,2.2,0.2,2.7,1.1c2,3.6,2.2,21.3,1.2,25.8C283.2,95.5,282.2,96.4,280.3,96.4z M277,72.8c-1.3,1.4-5.3,6.5-8.9,11.5
			c4.5-1.5,7.6-2,9.3-2.2C277.3,79.7,277.2,74.3,277,72.8z"/>
		<path d="M312.2,69.6c-2.6,0.6-5.4,1-6.6,1.2c-1,0.2-1.9,0.4-2.5,0.6c-1.3,2.8-4.6,10.8-6.1,14.3c2.3-0.7,4.1-1.4,6.4-1.4
			c3.3-0.1,5.8,1.9,5.6,3c-0.5,1.4-3.2,2.6-4.6,2.6c-0.1,0-0.3,0-0.4,0c-2.1,0-6.6,1.4-8.9,2c0,0.2-0.1,0.6-0.2,1.1
			c-0.1,0.8-0.4,1.7-0.5,2.5c-0.1,0.5-0.2,0.9-0.3,1c1-0.1,1.9-0.4,2.8-0.6c1.5-0.4,3.2-0.8,4.2-0.8c1.6,0,5.4,1.5,5.2,2.5
			c-0.4,2.1-8.7,3.8-10.5,4.2c-1.3,0.3-2.8,0.9-4.1,0.9c-1,0-2.2-0.4-2.8-1.5c-0.8-1.8-0.6-4.8,0-7.8c1-4.7,3.1-10.4,5-15
			c1.8-4.4,3.4-7.7,3.5-8.1c0.1-0.6-0.1-1.2,0-2c0.1-0.6,0.6-1.7,2-1.9c2.6-0.4,5.2-0.9,7.5-1.4c2.2-0.5,4.3-0.8,5.7-0.8
			c1.1,0,5.5,1.3,5,3.4C317.5,68.1,315,69,312.2,69.6z"/>
		<path d="M330.3,98.3c-1.8,1.6-11.5,5.3-14.1,5.9c-0.2,0-0.5,0-0.7,0c-1.2,0-2.5-0.8-3.7-1.9c-0.2-0.2-0.3-1,0-2.1
			c1.2-5.8,8.5-29.6,11.1-34c0.6-1,1.7-1.5,2.5-1.5c1.2,0,2.2,0.7,2.7,1.9c0.1,0.2,0,0.7,0,1.2c-0.9,4-7.7,21.1-9.3,28.8
			c0,0.4-0.2,0.8-0.2,1.1c3-0.8,7.6-2.1,9-2.6c0.5-0.1,0.9-0.2,1.3-0.2c1,0,2.6,0.6,2.3,2.2C330.9,97.6,330.6,98,330.3,98.3z"/>
		<path d="M338.4,102.3c-2.9,0-6.1-2.7-6.3-4.2c-0.3-2-0.2-4.3,0.3-6.6c1.9-9.1,12.6-24.5,25.3-24.5c2.2,0,2.6,1.9,2.4,3.1
			c-0.2,0.5-0.8,2.1-2.2,2.1c-0.2,0-0.4-0.1-0.6-0.1c-3.3,0-16.3,7.3-18.8,19.1c-0.4,2.1-0.5,4.2-0.2,6.6
			c2.3-0.8,10.5-6.5,14.2-13.6c-1.4,0.1-3.2,0.5-5.1,0.9c-0.2,0.1-0.3,0.1-0.5,0.1c-1.2,0-2.9-1.3-2.8-2.5
			c0.2-0.9,10.4-4.2,11.9-4.4c0.3-0.1,1.5-0.1,2.5-0.1c1.9,0,3.4,0.9,3.2,1.5C360.4,85.9,343.9,102.3,338.4,102.3z"/>
		<path d="M385.6,69.6c-2.6,0.6-5.4,1-6.6,1.2c-1,0.2-1.9,0.4-2.5,0.6c-1.3,2.8-4.6,10.8-6.1,14.3c2.3-0.7,4.1-1.4,6.4-1.4
			c3.3-0.1,5.8,1.9,5.6,3c-0.5,1.4-3.2,2.6-4.6,2.6c-0.1,0-0.3,0-0.4,0c-2.1,0-6.6,1.4-8.9,2c0,0.2-0.1,0.6-0.2,1.1
			c-0.1,0.8-0.4,1.7-0.5,2.5c-0.1,0.5-0.2,0.9-0.3,1c1-0.1,1.9-0.4,2.8-0.6c1.5-0.4,3.2-0.8,4.2-0.8c1.6,0,5.4,1.5,5.2,2.5
			c-0.4,2.1-8.7,3.8-10.5,4.2c-1.3,0.3-2.8,0.9-4.1,0.9c-1,0-2.2-0.4-2.8-1.5c-0.8-1.8-0.6-4.8,0-7.8c1-4.7,3.1-10.4,5-15
			c1.8-4.4,3.4-7.7,3.5-8.1c0.1-0.6-0.1-1.2,0-2c0.1-0.6,0.6-1.7,2-1.9c2.6-0.4,5.2-0.9,7.5-1.4c2.2-0.5,4.3-0.8,5.7-0.8
			c1.1,0,5.5,1.3,5,3.4C390.9,68.1,388.4,69,385.6,69.6z"/>
		<path d="M399.1,88.7c1.8,1.4,4.2,2.9,6.2,4.5c0.3,0.2,0.6,0.7,0.5,1.2c-0.2,1.1-2.5,2.2-4.2,2.2c-1.5,0-2.6-0.9-3.6-1.7
			c-1.7-1.3-3.3-2.8-5.1-3.9c-0.2,1.6-0.2,3.6-0.4,4.4c-0.3,1.5-2.1,2-3.2,2c-1,0-2.2-0.4-2.7-1.6c-0.5-1.5-0.3-5,0.5-8.7
			c0.2-1,0.5-2.1,0.8-3.2c1.6-5.2,5.2-12.5,6-12.6c3.1-0.4,6.1-0.5,8.8-0.5c4.7,0,8.5,0.5,10.1,1.1c2.8,1,6.1,3.3,5.5,6.1
			C417.4,82.7,403.1,87.5,399.1,88.7z M402.8,75.2c-1.4,0-2.9,0-4.2,0.1c-1.4,2.5-3.2,6.5-4.1,9.7c5-1.4,16.8-6.1,17.4-8.4
			C411.2,75.9,407.5,75.2,402.8,75.2z"/>
		<path d="M443.7,73.1c-2.2,1.8-13.2,11.9-17.1,17.3c1.4-0.4,4.2-1.1,5.7-1.5c0.6-0.1,1.4-0.4,1.8-0.3c1.2,0,3.3,1.4,3,2.8
			c-0.1,0.8-0.9,1.2-1.5,1.4c-3,0.7-9.2,1.7-11.9,3.1c-0.3,0.2-0.6,0.2-0.9,0.2c-1.5,0-3.8-2.9-3.5-4.3c0.7-2.1,9.1-11.3,13.3-15.5
			c-2.6,0.6-6.3,1.6-7.9,2.2c-0.3,0.1-0.7,0.1-0.9,0.1c-1.2,0-3.3-1.2-3-2.2c0.5-2.7,11.9-4.8,14.2-5.4c1.5-0.3,2.4-0.5,2.6-0.6
			c0.8-0.4,1.7-0.5,2.4-0.5c2,0,4.6,1.1,4.3,2.2C444.2,72.6,444,72.9,443.7,73.1z"/>
		<path d="M466,96.4c-1.3,0-2.9-0.6-3.4-1.7c-0.3-0.9,0.1-5.3,0.2-6.7c-4.9,1.2-11.4,2.1-13.4,2.3c-2.5,3-4.6,6.2-6.9,9.3
			c-0.6,0.8-1.2,1.4-1.5,1.7c-0.7,0.7-2.5,1.2-3.4,1.2c-1,0-1.7-0.5-1.4-1.5c1.5-5.4,23-32.2,24.5-33c1.5-0.9,3.2-1.2,4.5-1.2
			c1,0,2.2,0.2,2.7,1.1c2,3.6,2.2,21.3,1.2,25.8C468.9,95.5,467.9,96.4,466,96.4z M462.7,72.8c-1.3,1.4-5.3,6.5-8.9,11.5
			c4.5-1.5,7.6-2,9.3-2.2C463,79.7,462.9,74.3,462.7,72.8z"/>
		<path d="M489,87.6c1.8,1.3,3.6,3.3,3.3,4.7c-1,5.1-9.8,8.2-14.6,8.2c-0.2,0-0.3,0-0.5,0c-1.7,0-3.1-2.5-3.1-3.7
			c0-1.2,0.2-2.8,0.7-4.6c1.7-7.9,6.7-21.9,8-22.8c1.8-1.2,8.5-1.8,13.9-1.8c3.9,0,7.9,0.3,9.4,1.2c1.9,1.2,3.8,4.7,3.3,6.9
			C508.7,78.5,498.9,85,489,87.6z M481.3,89.9c-0.3,1-0.6,2.5-0.9,3.8c-0.2,0.8-0.5,1.4-0.7,1.9l-0.2,0.2c2-0.2,5.3-1.6,5.6-3.1
			C485.3,92.1,483.5,90.2,481.3,89.9z M497.2,72.6c-3,0-6.9,0.4-10.5,0.9c-0.9,2.2-2.7,8-3.5,10.6c7-1.1,19.3-7.9,19.7-10.4
			C503.2,72.4,500.6,72.6,497.2,72.6z"/>
		<path d="M531.2,69.6c-2.6,0.6-5.4,1-6.6,1.2c-1,0.2-1.9,0.4-2.5,0.6c-1.3,2.8-4.6,10.8-6.1,14.3c2.3-0.7,4.1-1.4,6.4-1.4
			c3.3-0.1,5.8,1.9,5.6,3c-0.5,1.4-3.2,2.6-4.6,2.6c-0.1,0-0.3,0-0.4,0c-2.1,0-6.6,1.4-8.9,2c0,0.2-0.1,0.6-0.2,1.1
			c-0.1,0.8-0.4,1.7-0.5,2.5c-0.1,0.5-0.2,0.9-0.3,1c1-0.1,1.9-0.4,2.8-0.6c1.5-0.4,3.2-0.8,4.2-0.8c1.6,0,5.4,1.5,5.2,2.5
			c-0.4,2.1-8.7,3.8-10.5,4.2c-1.3,0.3-2.8,0.9-4.1,0.9c-1,0-2.2-0.4-2.8-1.5c-0.8-1.8-0.6-4.8,0-7.8c1-4.7,3.1-10.4,5-15
			c1.8-4.4,3.4-7.7,3.5-8.1c0.1-0.6-0.1-1.2,0-2c0.1-0.6,0.6-1.7,2-1.9c2.6-0.4,5.2-0.9,7.5-1.4c2.2-0.5,4.3-0.8,5.7-0.8
			c1.1,0,5.5,1.3,5,3.4C536.5,68.1,534,69,531.2,69.6z"/>
		<path d="M562,75.7c-1.5,0.8-11.8,6.7-17.6,10.4c2.3,1.2,4.9,2.1,7.3,3.2c1,0.5,2.1,1.2,1.8,2.7s-1.3,2.1-2.6,2.1
			c-1.2,0-3-0.4-3.7-0.6c-1.1-0.4-4.6-2.4-7-3.7c-0.5,2.1-1.5,5.6-1.7,6.4c-0.3,1.2-1.6,1.5-2.2,1.5c-1.2,0-3.4-0.8-3.7-2.2
			c0-0.2,0-0.7,0.1-1.3c0.9-4.2,6.3-22.2,8.2-25.9c0.7-1.2,2-1.5,2.7-1.5c1.1,0,3.8,1,3.5,2.6c-0.2,1-2.8,7.9-4,11.8
			c4.2-2.8,12.6-8.7,17.3-8.9c1.1,0,2.8,1.2,2.5,2.5C562.7,75,562.4,75.4,562,75.7z"/>
	</g>
	<g>
		<path d="M588.2,59.1c-1.7,3.5-6.2,7.3-10.8,7.3c-3.6,0-6.3-2.1-7.6-4.2c-0.6-1-1.1-2.4-1.3-4.1c-0.7-6,2.4-14.2,9.3-15.2
			c0.2,0,0.3,0,0.4,0c0.6,0,0.9,0.2,1.3,0.5c0.6-0.7,1.7-0.9,2.6-0.9s2.5,0.3,3.6,0.9c1.1,0.7,2.1,1.5,2.9,3.5
			c0.4,1.1,0.7,2.2,0.9,3.5C589.9,53.2,589.6,56.3,588.2,59.1z M584.5,45.9c-0.4-0.8-1.3-1.2-2.3-1.2c-0.4,0-0.9,0.1-1.3,0.2
			c-6.7,2.2-9.6,7-8.8,13.8c0.2,1.8,0.7,3.2,1.1,3.8c0.4,0.6,1.6,1.2,2.4,1.2c4.2,0,7.6-3.5,9.2-6.7c1.1-2.3,1.2-4.8,1-6.9
			C585.5,48.3,585,46.8,584.5,45.9z M580,56.9c0.6,0.4,1.2,0.8,1.9,1.2c0.3,0.2,0.6,0.5,0.6,0.9c0.1,1-1.1,1.4-1.7,1.4
			c-1,0-2.3-1.1-3.1-1.7c0.1,0.3,0.1,0.5,0.2,0.7c0.1,0.9-0.6,1.3-1.3,1.3c-0.5,0-1.2-0.3-1.7-0.9c-0.4-0.7-0.9-2.2-1.1-3.7
			c0-0.4-0.1-0.9-0.1-1.3c-0.1-2.3,0.6-5.4,1-5.5c1.1-0.2,2.1-0.2,3.2-0.2c1.7,0,3.2,0.2,3.9,0.4c1.1,0.4,2.9,1.4,3.1,2.9
			C585.2,54.4,581.5,56.2,580,56.9z M578.6,51.9c-0.4,0-0.8,0-1.1,0c-0.2,0.7-0.3,1.5-0.3,2.3c1.9-0.7,2.5-1.2,4.2-2.1
			C580.8,52,579.7,51.9,578.6,51.9z"/>
	</g>
	<g>
		<path d="M558.2,96.4c-1.6,0.1-2-1.6-1.8-2.6c0.1-0.6,0.5-1.3,1.2-1.8c0.7-0.5,1.7-0.8,2.4-0.8c1.2,0,2.5,0.6,2.2,1.9
			C561.9,94.4,560.1,96.4,558.2,96.4z"/>
		<path d="M582.2,77.8c-1.7,0.4-12.3,7.9-13.5,13.5c0,0.2,0.1,0.7,0.4,0.7c1.7,0,6.4-2.4,7.8-3.9c0.4-0.4,0.8-0.5,1.2-0.5
			c0.8,0,1.3,0.6,1.2,1.6c-0.5,2.2-6.6,5.1-9,5.9c-0.5,0.2-1,0.2-1.5,0.2c-2.9,0-4.5-1.9-4-4.7c1-4.5,10.4-15.5,16.6-15.5
			c1,0,2,0.6,1.9,1.6C583.1,77.3,582.6,77.6,582.2,77.8z"/>
		<path d="M595.5,85.1c-1,3.3-5.6,7.2-9,7.2c-3.1,0-4.5-2.5-4-5.1c0.7-3.1,4.6-8.5,9.2-8.5c0.6,0,1.4,0.1,1.9,0.7
			c1.3,0.1,3,1,2.2,4.4C595.8,84.3,595.6,84.7,595.5,85.1z M591.8,82.5c-2.2,0-5.7,3.4-6.1,5.3c-0.1,0.5,0,0.8,0.5,0.8
			c1.1,0,3-1,3.8-1.9c1.1-1.1,2.2-3.2,2.5-4.1l0,0C592.3,82.5,592.1,82.5,591.8,82.5z"/>
		<path d="M622.4,90c-0.5,0.9-2.6,1.7-3.4,1.7c-0.2,0-0.8-0.1-0.9-0.6c-0.1-1.3-0.2-2.7-0.2-3.9c0-0.6,0-1.1,0-1.5
			c-1.7,1-6.3,4.9-7.6,6c-0.6,0.5-1.4,0.7-2,0.7c-0.8,0-1.7-0.3-2-0.8c-0.4-0.7,0.4-6.5,0.6-7.8c-3,3-6.1,6.6-7.6,8.2
			c-0.5,0.5-1.4,0.7-1.9,0.7c-0.7,0-1.4-0.4-1.2-1.1c0-0.1,0-0.2,0.1-0.2c0.6-1.1,10.4-12.6,11.8-13.8c0.9-0.8,2.1-1.4,3-1.4
			c0.7,0,1.2,0.4,1.2,1.2c0,1.6-1.1,6.1-1.3,10c2.4-1.9,5.5-4.3,6.5-5.1c1-0.8,2.6-1.6,3.6-1.6c0.3,0,0.6,0.1,0.9,0.3
			c0.7,0.6,1.1,6.6,0.7,8.4C622.5,89.6,622.5,89.9,622.4,90z"/>
	</g>
	<rect x="17.5" y="12.4" class="st0" width="18.3" height="86"/>
	<path class="st1" d="M39.7,98.4v-86h1.6c2.9,0,5.5,0.9,7.9,2.6c2.3,1.7,4.1,4.2,5.4,7.4c0.8,2,1.4,4.4,1.9,7.1
		c0.5,2.8,0.9,6,1.1,9.4C57.8,42.5,58,46.5,58,51v47.3H39.7V98.4z"/>
	<path class="st2" d="M80.3,98.4H61.9V44.9c0-6.2-0.5-12.1-1.5-17.5c-0.4-2.5-0.8-4.5-1.3-5.8c-0.4-1.4-1-3.1-1.8-4.9
		c1.1-1.4,2.2-2.5,3.4-3.1c1.3-0.7,2.8-1.1,4.4-1.1c10.2,0,15.3,11.1,15.3,33.3v52.6H80.3z"/>
	<path class="st3" d="M104.6,12.4v86h-2c-3.1,0-6-2-8.6-5.9s-4.7-9.1-6.3-15.7c-1.6-6.6-2.3-13.7-2.3-21.4c0-6.1,0.4-11.8,1.3-17.1
		s2.1-9.9,3.7-13.7s3.5-6.8,5.7-9c2.1-2.1,4.5-3.2,7.1-3.2C103.2,12.4,104.6,12.4,104.6,12.4z"/>
	<path class="st4" d="M126.4,101.1v18.4H49.9c-6.2,0-12.1,0.5-17.5,1.5c-2.5,0.4-4.5,0.8-5.8,1.3c-1.4,0.4-3.1,1-4.9,1.8
		c-1.4-1.1-2.5-2.2-3.1-3.4c-0.7-1.3-1.1-2.8-1.1-4.4c0-10.2,11.1-15.3,33.3-15.3h52.6L126.4,101.1z"/>
	<path class="st5" d="M108.1,98.4v-86h1.6c2.9,0,5.5,0.9,7.9,2.6c2.3,1.7,4.1,4.2,5.4,7.4c0.8,2,1.4,4.4,1.9,7.1
		c0.5,2.8,0.9,6,1.1,9.4c0.2,3.6,0.4,7.6,0.4,12.1v47.3h-18.3C108.1,98.3,108.1,98.4,108.1,98.4z"/>
	<path class="st6" d="M126.4,126.9h-97v-0.4c0-0.8,0.9-1.5,2.6-2.2c1.7-0.6,4.2-1.1,7.4-1.5c2-0.2,4.4-0.4,7.1-0.5
		c2.8-0.1,6-0.2,9.4-0.3c3.6-0.1,7.6-0.1,12.1-0.1h58.3L126.4,126.9L126.4,126.9z"/>
</g>
<g id="Ebene_2" class="st7">
	<g class="st8">
		<rect x="304" y="270" class="st9" width="4" height="4"/>
		<rect x="299" y="270" class="st10" width="4" height="4"/>
		<rect x="294" y="270" class="st11" width="4" height="4"/>
		<rect x="294" y="275" class="st12" width="4" height="4"/>
		<rect x="299" y="275" class="st3" width="4" height="4"/>
		<rect x="304" y="275" class="st5" width="4" height="4"/>
		<rect x="294" y="280" class="st13" width="4" height="4"/>
		<rect x="299" y="280" class="st14" width="4" height="4"/>
		<rect x="304" y="280" class="st15" width="4" height="4"/>
	</g>
</g>
</svg>
