<?xml version="1.0" encoding="utf-8"?>
<!-- Generator: Adobe Illustrator 24.1.0, SVG Export Plug-In . SVG Version: 6.00 Build 0)  -->
<svg version="1.1" id="Ebene_1" xmlns="http://www.w3.org/2000/svg" xmlns:xlink="http://www.w3.org/1999/xlink" x="0px" y="0px"
	 viewBox="0 0 128 128" style="enable-background:new 0 0 128 128;" xml:space="preserve">
<style type="text/css">
	.st0{fill:#FDC300;}
	.st1{fill:#43E341;}
	.st2{fill:#00BC74;}
	.st3{fill:#26A3D7;}
	.st4{fill:#C8117D;}
	.st5{fill:#3D3DE3;}
	.st6{fill:#7E02C9;}
</style>
<rect x="11" y="10.2" class="st0" width="18.3" height="86"/>
<path class="st1" d="M33.2,96.2v-86h1.6c2.9,0,5.5,0.9,7.9,2.6c2.3,1.7,4.1,4.2,5.4,7.4c0.8,2,1.4,4.4,1.9,7.1
	c0.5,2.8,0.9,6,1.1,9.4c0.2,3.6,0.4,7.6,0.4,12.1v47.3H33.2V96.2z"/>
<path class="st2" d="M73.8,96.2H55.4V42.7c0-6.2-0.5-12.1-1.5-17.5c-0.4-2.5-0.8-4.5-1.3-5.8c-0.4-1.4-1-3.1-1.8-4.9
	c1.1-1.4,2.2-2.5,3.4-3.1c1.3-0.7,2.8-1.1,4.4-1.1c10.2,0,15.3,11.1,15.3,33.3v52.6H73.8z"/>
<path class="st3" d="M98.1,10.2v86h-2c-3.1,0-6-2-8.6-5.9s-4.7-9.1-6.3-15.7c-1.6-6.6-2.3-13.7-2.3-21.4c0-6.1,0.4-11.8,1.3-17.1
	s2.1-9.9,3.7-13.7c1.6-3.8,3.5-6.8,5.7-9c2.1-2.1,4.5-3.2,7.1-3.2C96.7,10.2,98.1,10.2,98.1,10.2z"/>
<path class="st4" d="M119.9,98.9v18.4H43.4c-6.2,0-12.1,0.5-17.5,1.5c-2.5,0.4-4.5,0.8-5.8,1.3c-1.4,0.4-3.1,1-4.9,1.8
	c-1.4-1.1-2.5-2.2-3.1-3.4c-0.7-1.3-1.1-2.8-1.1-4.4c0-10.2,11.1-15.3,33.3-15.3h52.6L119.9,98.9z"/>
<path class="st5" d="M101.6,96.2v-86h1.6c2.9,0,5.5,0.9,7.9,2.6c2.3,1.7,4.1,4.2,5.4,7.4c0.8,2,1.4,4.4,1.9,7.1
	c0.5,2.8,0.9,6,1.1,9.4c0.2,3.6,0.4,7.6,0.4,12.1v47.3h-18.3V96.2z"/>
<path class="st6" d="M119.9,124.7h-97v-0.4c0-0.8,0.9-1.5,2.6-2.2c1.7-0.6,4.2-1.1,7.4-1.5c2-0.2,4.4-0.4,7.1-0.5
	c2.8-0.1,6-0.2,9.4-0.3c3.6-0.1,7.6-0.1,12.1-0.1h58.3v5H119.9z"/>
</svg>
