<?xml version="1.0" encoding="utf-8"?>
<!-- Generator: Adobe Illustrator 25.4.1, SVG Export Plug-In . SVG Version: 6.00 Build 0)  -->
<svg version="1.1" xmlns="http://www.w3.org/2000/svg" xmlns:xlink="http://www.w3.org/1999/xlink" x="0px" y="0px"
	 viewBox="0 0 634 184" style="enable-background:new 0 0 634 184;" xml:space="preserve">
<style type="text/css">
	.st0{display:none;}
	.st1{display:inline;}
	.st2{fill:#7307C4;}
	.st3{fill:#C40773;}
	.st4{fill:#E33D3D;}
	.st5{fill:#C47307;}
	.st6{fill:#26A3D7;}
	.st7{fill:#3D3DE3;}
	.st8{fill:#FFC000;}
	.st9{fill:#3DE33D;}
	.st10{fill:#07B86C;}
	.st11{fill:#565656;}
	.st12{fill:#FDC300;}
	.st13{fill:#43E341;}
	.st14{fill:#00BC74;}
	.st15{fill:#C8117D;}
	.st16{fill:#7E02C9;}
</style>
<g id="Ebene_1">
</g>
<g id="Ebene_2" class="st0">
	<g class="st1">
		<rect x="304" y="270" class="st2" width="4" height="4"/>
		<rect x="299" y="270" class="st3" width="4" height="4"/>
		<rect x="294" y="270" class="st4" width="4" height="4"/>
		<rect x="294" y="275" class="st5" width="4" height="4"/>
		<rect x="299" y="275" class="st6" width="4" height="4"/>
		<rect x="304" y="275" class="st7" width="4" height="4"/>
		<rect x="294" y="280" class="st8" width="4" height="4"/>
		<rect x="299" y="280" class="st9" width="4" height="4"/>
		<rect x="304" y="280" class="st10" width="4" height="4"/>
	</g>
</g>
<g id="Ebene_3">
	<g>
		<path class="st11" d="M213.6,152.6l-1.2,3.7l-1.6-0.6l3.9-12.2h2.1l3.9,12.2l-1.6,0.6l-1.2-3.7H213.6z M215.8,145.4l-1.8,5.8h3.6
			L215.8,145.4z"/>
		<path class="st11" d="M227.9,143.5v8.5c0,1.8,0.5,2.7,2.2,2.7c2,0,2.4-0.9,2.4-2.7v-8.5h1.6v9.3c0,1.7-1.2,3.4-3.9,3.4
			c-2.7,0-3.9-1.7-3.9-3.5v-9.2H227.9z"/>
		<path class="st11" d="M243.8,145h-3.5v-1.4h8.4v1.4h-3.4V156h-1.6V145z"/>
		<path class="st11" d="M256.8,152.6l-1.2,3.7l-1.6-0.6l3.9-12.2h2.1l3.9,12.2l-1.6,0.6l-1.2-3.7H256.8z M259,145.4l-1.8,5.8h3.6
			L259,145.4z"/>
		<path class="st11" d="M269.8,143.5h4.2c2.1,0,3.7,1,3.7,3.4c0,1.5-1,3-2.5,3.5l3.1,5.1l-1.4,0.8l-3.2-5.7h-2.3v5.4h-1.6V143.5z
			 M273.5,149.2c1.6,0,2.6-0.9,2.6-2.3c0-1.1-0.7-2-2.1-2h-2.6v4.3H273.5z"/>
		<path class="st11" d="M286.1,148.8h0.6l4.3-5.6l1.2,1l-4.2,5.3l4.9,5.9l-1.2,1l-5.1-6.2h-0.6v5.9h-1.6v-12.5h1.6V148.8z"/>
		<path class="st11" d="M316.6,146.2c0.7,0,1.2,0.5,1.2,1.2c0,0.7-0.5,1.2-1.2,1.2s-1.2-0.5-1.2-1.2
			C315.4,146.7,315.9,146.2,316.6,146.2z"/>
		<path class="st11" d="M343.7,148.8h0.6l4.3-5.6l1.2,1l-4.2,5.3l4.9,5.9l-1.2,1l-5.1-6.2h-0.6v5.9h-1.6v-12.5h1.6V148.8z"/>
		<path class="st11" d="M356.2,143.5h4.2c2.1,0,3.7,1,3.7,3.4c0,1.5-1,3-2.5,3.5l3.1,5.1l-1.4,0.8l-3.2-5.7h-2.3v5.4h-1.6V143.5z
			 M359.9,149.2c1.6,0,2.6-0.9,2.6-2.3c0-1.1-0.7-2-2.1-2h-2.6v4.3H359.9z"/>
		<path class="st11" d="M370.8,143.5h7.8v1.4h-6.2v3.7h5.1v1.4h-5.1v4.4h6.2v1.4h-7.8V143.5z"/>
		<path class="st11" d="M386.4,152.6l-1.2,3.7l-1.6-0.6l3.9-12.2h2.1l3.9,12.2l-1.6,0.6l-1.2-3.7H386.4z M388.6,145.4l-1.8,5.8h3.6
			L388.6,145.4z"/>
		<path class="st11" d="M402.2,145h-3.5v-1.4h8.4v1.4h-3.4V156h-1.6V145z"/>
		<path class="st11" d="M414.8,154.6h1.8V145h-1.8v-1.4h5.1v1.4h-1.8v9.6h1.8v1.4h-5.1V154.6z"/>
		<path class="st11" d="M435.2,143.2l1.5,0.6l-4.8,12.6h-0.3l-4.8-12.6l1.5-0.6l3.4,9.2L435.2,143.2z"/>
		<path class="st11" d="M460.6,146.2c0.7,0,1.2,0.5,1.2,1.2c0,0.7-0.5,1.2-1.2,1.2c-0.7,0-1.2-0.5-1.2-1.2
			C459.4,146.7,459.9,146.2,460.6,146.2z"/>
		<path class="st11" d="M486.4,143.5h7.9v1.4H488v3.7h5.3v1.4H488v5.9h-1.6V143.5z"/>
		<path class="st11" d="M508.2,149.8c0,1-0.1,6.5-4.4,6.5c-2,0-4.4-1.4-4.4-6.5c0-5,2.4-6.5,4.4-6.5
			C505.8,143.3,508.2,144.7,508.2,149.8z M501,149.8c0,1.8,0.3,4.9,2.8,4.9c2.4,0,2.8-3.1,2.8-4.9c0-1.8-0.3-5-2.8-5
			C501.4,144.8,501,147.9,501,149.8z"/>
		<path class="st11" d="M516.5,148.8h0.6l4.3-5.6l1.2,1l-4.2,5.3l4.9,5.9l-1.2,1l-5.1-6.2h-0.6v5.9h-1.6v-12.5h1.6V148.8z"/>
		<path class="st11" d="M530.3,143.5v8.5c0,1.8,0.5,2.7,2.2,2.7c2,0,2.4-0.9,2.4-2.7v-8.5h1.6v9.3c0,1.7-1.2,3.4-3.9,3.4
			c-2.7,0-3.9-1.7-3.9-3.5v-9.2H530.3z"/>
		<path class="st11" d="M544.4,152.1c0.3,1.5,1.1,2.7,2.7,2.7c1.3,0,2.4-0.7,2.4-2.1c0-1.5-1.3-1.9-2.5-2.4
			c-1.8-0.8-3.6-1.2-3.6-3.6c0-2.1,1.7-3.3,3.7-3.3c2.1,0,3.3,1.2,3.8,3.1l-1.5,0.5c-0.3-1.2-0.9-2.1-2.3-2.1c-1,0-2,0.5-2,1.7
			c0,1.2,0.7,1.5,1.7,1.9l2.7,1.2c1.1,0.6,1.7,1.6,1.7,2.9c0,2.4-1.7,3.7-4,3.7c-2.3,0-3.8-1.5-4.2-3.7L544.4,152.1z"/>
		<path class="st11" d="M558.8,152.1c0.3,1.5,1.1,2.7,2.7,2.7c1.3,0,2.4-0.7,2.4-2.1c0-1.5-1.3-1.9-2.5-2.4
			c-1.8-0.8-3.6-1.2-3.6-3.6c0-2.1,1.7-3.3,3.7-3.3c2.1,0,3.3,1.2,3.8,3.1l-1.5,0.5c-0.3-1.2-0.9-2.1-2.3-2.1c-1,0-2,0.5-2,1.7
			c0,1.2,0.7,1.5,1.7,1.9l2.7,1.2c1.1,0.6,1.7,1.6,1.7,2.9c0,2.4-1.7,3.7-4,3.7c-2.3,0-3.8-1.5-4.2-3.7L558.8,152.1z"/>
		<path class="st11" d="M573.2,154.6h1.8V145h-1.8v-1.4h5.1v1.4h-1.8v9.6h1.8v1.4h-5.1V154.6z"/>
		<path class="st11" d="M586.7,143.5h7.8v1.4h-6.2v3.7h5.1v1.4h-5.1v4.4h6.2v1.4h-7.8V143.5z"/>
		<path class="st11" d="M601,143.5h4.2c2.1,0,3.7,1,3.7,3.4c0,1.5-1,3-2.5,3.5l3.1,5.1l-1.4,0.8l-3.2-5.7h-2.3v5.4H601V143.5z
			 M604.7,149.2c1.6,0,2.6-0.9,2.6-2.3c0-1.1-0.7-2-2.1-2h-2.6v4.3H604.7z"/>
		<path class="st11" d="M618.2,145h-3.5v-1.4h8.4v1.4h-3.4V156h-1.6V145z"/>
	</g>
	<g>
		<path d="M176.9,101.3c-0.8,1.4-3.4,2.2-4.6,2.2c-3,0-2.2-6.2-2.1-8.3c-2.3,1.6-7.4,5.8-9,7.2c-0.9,0.8-2,0.9-2.8,0.9
			c-1.2,0-2.9-0.4-3.4-1.2c-0.6-0.9,0.4-6.9,0.7-8.6c-3.9,3.8-8,8.2-9.9,10.3c-0.7,0.8-2,0.9-2.6,0.9c-1.1,0-2.2-0.6-2-1.6
			c0.3-1.5,15.6-18,16.9-19.1c1.3-1.1,3.2-2.1,4.5-2.1c1,0,1.8,0.5,1.8,1.6c-0.1,0.6-0.2,1.5-0.4,2.5c-0.6,3.1-1.3,6.3-1.5,9.4
			c3-2,6.5-4.4,7.7-5.4c1.4-1,4-2.1,5.5-2.1c0.4,0,0.9,0,1.2,0.4c0.8,0.6,0.8,9.2,0.2,12.1C177.2,100.6,177.1,101,176.9,101.3z"/>
		<path d="M194.5,88.2c-1,4.4-5.1,15.3-6.9,16.3c-0.4,0.2-0.9,0.4-1.3,0.4c-1.2,0-2-2.1-2.1-3.1c-0.1-0.6,0-1.7,0.3-2.9
			c0.9-4.3,3.6-12.6,4.6-13.8c0.7-0.8,1.9-0.9,2.5-0.9c1.1,0,3,0.4,3.2,1.9C194.8,86.6,194.7,87.4,194.5,88.2z"/>
		<path d="M223.9,80.6c-2.7,0.7-19.3,12.4-21.2,21.2c-0.1,0.4,0.2,1.1,0.6,1.1c2.6,0,10-3.8,12.3-6.1c0.6-0.6,1.2-0.8,1.9-0.8
			c1.3,0,2.1,1,1.8,2.5c-0.8,3.4-10.3,8-14.1,9.2c-0.8,0.2-1.5,0.4-2.3,0.4c-4.6,0-7.1-3-6.2-7.3c1.5-7.1,16.2-24.2,26-24.2
			c1.5,0,3.2,1,2.9,2.5C225.4,79.9,224.6,80.4,223.9,80.6z"/>
		<path d="M253.8,92.1c-1.2,3.4-2.4,7-3.4,9.9c-1,2.6-1.9,5.2-2.6,6c-0.5,0.6-1.1,0.8-1.6,0.8c-1.2,0-3.6-1.6-3.4-3
			c0.2-1.2,0.8-2.3,1.2-3.5c0.3-0.9,0.7-1.9,1-2.8l-14.4,2.4c-0.4,1.2-0.6,2.3-1,3.5c-0.3,0.9-0.9,1.8-2.2,1.8c-1.1,0-2.6-0.7-2.9-2
			c-0.2-0.8,0-2.6,0.5-4.6c1.1-5.3,3.9-14.6,5.6-16.3c0.5-0.6,1.1-0.7,1.6-0.7c1.5,0,3.6,1.6,3.2,3.2c-0.2,1.2-2,6.5-2.9,9.1
			c3.8-0.7,14.7-2.2,14.7-2.2s0.1-0.6,0.3-1c0.9-2.8,3.2-10.8,4.7-13c0.5-0.7,1.2-0.9,1.8-0.9c1.6,0,3.5,1.7,3.1,3.4
			C256.8,83.5,255.4,87.6,253.8,92.1z"/>
		<path d="M282,106.4c-1.3,0-2.9-0.6-3.4-1.7c-0.3-0.9,0.1-5.3,0.2-6.7c-4.9,1.2-11.4,2.1-13.4,2.3c-2.5,3-4.6,6.2-6.9,9.3
			c-0.6,0.8-1.1,1.4-1.4,1.7c-0.7,0.7-2.5,1.2-3.4,1.2c-1,0-1.6-0.5-1.4-1.5c1.4-5.4,23-32.2,24.5-33c1.5-0.9,3.2-1.2,4.5-1.2
			c1,0,2.2,0.2,2.7,1.1c2,3.6,2.2,21.3,1.2,25.8C284.9,105.5,283.8,106.4,282,106.4z M278.6,82.8c-1.3,1.4-5.3,6.5-8.9,11.5
			c4.5-1.5,7.6-2,9.3-2.2C278.9,89.7,278.8,84.3,278.6,82.8z"/>
		<path d="M313.9,79.6c-2.6,0.6-5.4,1-6.6,1.2c-1,0.2-1.9,0.4-2.5,0.6c-1.3,2.8-4.6,10.8-6.1,14.3c2.3-0.7,4.1-1.4,6.4-1.4
			c3.3-0.1,5.8,1.9,5.6,3c-0.5,1.4-3.2,2.6-4.6,2.6c-0.1,0-0.3,0-0.4,0c-2.1,0-6.6,1.4-8.9,2c0,0.2-0.1,0.6-0.2,1.1
			c-0.1,0.8-0.4,1.7-0.5,2.5c-0.1,0.5-0.2,0.9-0.3,1c1-0.1,1.9-0.4,2.8-0.6c1.5-0.4,3.2-0.8,4.2-0.8c1.6,0,5.4,1.5,5.2,2.5
			c-0.4,2.1-8.7,3.8-10.5,4.2c-1.3,0.3-2.8,0.9-4.1,0.9c-1,0-2.2-0.4-2.8-1.5c-0.8-1.8-0.6-4.8,0-7.8c1-4.7,3.1-10.4,5-15
			c1.8-4.4,3.4-7.7,3.5-8.1c0.1-0.6-0.1-1.2,0-2c0.1-0.6,0.6-1.7,2-1.9c2.6-0.4,5.2-0.9,7.5-1.4c2.2-0.5,4.3-0.8,5.7-0.8
			c1.1,0,5.5,1.3,5,3.4C319.2,78.1,316.7,79,313.9,79.6z"/>
		<path d="M331.9,108.3c-1.8,1.6-11.5,5.3-14.1,5.9c-0.2,0-0.5,0-0.7,0c-1.2,0-2.5-0.8-3.7-1.9c-0.2-0.2-0.3-1,0-2.1
			c1.2-5.8,8.5-29.6,11.1-34c0.6-1,1.7-1.5,2.5-1.5c1.2,0,2.2,0.7,2.7,1.9c0.1,0.2,0,0.7,0,1.2c-0.9,4-7.7,21.1-9.3,28.8
			c0,0.4-0.2,0.8-0.2,1.1c3-0.8,7.6-2.1,9-2.6c0.5-0.1,0.9-0.2,1.3-0.2c1,0,2.6,0.6,2.3,2.2C332.5,107.6,332.3,108,331.9,108.3z"/>
		<path d="M340.1,112.3c-2.9,0-6.1-2.7-6.3-4.2c-0.3-2-0.2-4.3,0.3-6.6C336,92.4,346.7,77,359.4,77c2.2,0,2.6,1.9,2.4,3.1
			c-0.2,0.5-0.8,2.1-2.2,2.1c-0.2,0-0.4-0.1-0.6-0.1c-3.3,0-16.3,7.3-18.8,19.1c-0.4,2.1-0.5,4.2-0.2,6.6
			c2.3-0.8,10.5-6.5,14.2-13.6c-1.4,0.1-3.2,0.5-5.1,0.9c-0.2,0.1-0.3,0.1-0.5,0.1c-1.2,0-2.9-1.3-2.8-2.5
			c0.2-0.9,10.4-4.2,11.9-4.4c0.3-0.1,1.5-0.1,2.5-0.1c1.9,0,3.4,0.9,3.2,1.5C362.1,95.9,345.6,112.3,340.1,112.3z"/>
		<path d="M387.2,79.6c-2.6,0.6-5.4,1-6.6,1.2c-1,0.2-1.9,0.4-2.5,0.6c-1.3,2.8-4.6,10.8-6.1,14.3c2.3-0.7,4.1-1.4,6.4-1.4
			c3.3-0.1,5.8,1.9,5.6,3c-0.5,1.4-3.2,2.6-4.6,2.6c-0.1,0-0.3,0-0.4,0c-2.1,0-6.6,1.4-8.9,2c0,0.2-0.1,0.6-0.2,1.1
			c-0.1,0.8-0.4,1.7-0.5,2.5c-0.1,0.5-0.2,0.9-0.3,1c1-0.1,1.9-0.4,2.8-0.6c1.5-0.4,3.2-0.8,4.2-0.8c1.6,0,5.4,1.5,5.2,2.5
			c-0.4,2.1-8.7,3.8-10.5,4.2c-1.3,0.3-2.8,0.9-4.1,0.9c-1,0-2.2-0.4-2.8-1.5c-0.8-1.8-0.6-4.8,0-7.8c1-4.7,3.1-10.4,5-15
			c1.8-4.4,3.4-7.7,3.5-8.1c0.1-0.6-0.1-1.2,0-2c0.1-0.6,0.6-1.7,2-1.9c2.6-0.4,5.2-0.9,7.5-1.4c2.2-0.5,4.3-0.8,5.7-0.8
			c1.1,0,5.5,1.3,5,3.4C392.5,78.1,390,79,387.2,79.6z"/>
		<path d="M400.8,98.7c1.8,1.4,4.2,2.9,6.2,4.5c0.3,0.2,0.6,0.7,0.5,1.2c-0.2,1.1-2.5,2.2-4.2,2.2c-1.5,0-2.6-0.9-3.6-1.7
			c-1.7-1.3-3.3-2.8-5.1-3.9c-0.2,1.6-0.2,3.6-0.4,4.4c-0.3,1.5-2.1,2-3.2,2c-1,0-2.2-0.4-2.7-1.6c-0.5-1.5-0.3-5,0.5-8.7
			c0.2-1,0.5-2.1,0.8-3.2c1.6-5.2,5.2-12.5,6-12.6c3.1-0.4,6.1-0.5,8.8-0.5c4.7,0,8.5,0.5,10.1,1.1c2.8,1,6.1,3.3,5.5,6.1
			C419.1,92.7,404.7,97.5,400.8,98.7z M404.4,85.2c-1.4,0-2.9,0-4.2,0.1c-1.4,2.5-3.2,6.5-4.1,9.7c5-1.4,16.8-6.1,17.4-8.4
			C412.8,85.9,409.1,85.2,404.4,85.2z"/>
		<path d="M445.4,83.1c-2.2,1.8-13.2,11.9-17.1,17.3c1.4-0.4,4.2-1.1,5.7-1.5c0.6-0.1,1.4-0.4,1.8-0.3c1.2,0,3.3,1.4,3,2.8
			c-0.1,0.8-0.9,1.2-1.5,1.4c-3,0.7-9.2,1.7-11.9,3.1c-0.3,0.2-0.6,0.2-0.9,0.2c-1.5,0-3.8-2.9-3.5-4.3c0.7-2.1,9.1-11.3,13.3-15.5
			c-2.6,0.6-6.3,1.6-7.9,2.2c-0.3,0.1-0.7,0.1-0.9,0.1c-1.2,0-3.3-1.2-3-2.2c0.5-2.7,11.9-4.8,14.2-5.4c1.5-0.3,2.4-0.5,2.6-0.6
			c0.8-0.4,1.7-0.5,2.4-0.5c2,0,4.6,1.1,4.3,2.2C445.9,82.6,445.6,82.9,445.4,83.1z"/>
		<path d="M467.7,106.4c-1.3,0-2.9-0.6-3.4-1.7c-0.3-0.9,0.1-5.3,0.2-6.7c-4.9,1.2-11.4,2.1-13.4,2.3c-2.5,3-4.6,6.2-6.9,9.3
			c-0.6,0.8-1.2,1.4-1.5,1.7c-0.7,0.7-2.5,1.2-3.4,1.2c-1,0-1.7-0.5-1.4-1.5c1.5-5.4,23-32.2,24.5-33c1.5-0.9,3.2-1.2,4.5-1.2
			c1,0,2.2,0.2,2.7,1.1c2,3.6,2.2,21.3,1.2,25.8C470.6,105.5,469.5,106.4,467.7,106.4z M464.3,82.8c-1.3,1.4-5.3,6.5-8.9,11.5
			c4.5-1.5,7.6-2,9.3-2.2C464.6,89.7,464.5,84.3,464.3,82.8z"/>
		<path d="M490.6,97.6c1.8,1.3,3.6,3.3,3.3,4.7c-1,5.1-9.8,8.2-14.6,8.2c-0.2,0-0.3,0-0.5,0c-1.7,0-3.1-2.5-3.1-3.7
			c0-1.2,0.2-2.8,0.7-4.6c1.7-7.9,6.7-21.9,8-22.8c1.8-1.2,8.5-1.8,13.9-1.8c3.9,0,7.9,0.3,9.4,1.2c1.9,1.2,3.8,4.7,3.3,6.9
			C510.4,88.5,500.6,95,490.6,97.6z M483,99.9c-0.3,1-0.6,2.5-0.9,3.8c-0.2,0.8-0.5,1.4-0.7,1.9l-0.2,0.2c2-0.2,5.3-1.6,5.6-3.1
			C486.9,102.1,485.2,100.2,483,99.9z M498.9,82.6c-3,0-6.9,0.4-10.5,0.9c-0.9,2.2-2.7,8-3.5,10.6c7-1.1,19.3-7.9,19.7-10.4
			C504.9,82.4,502.2,82.6,498.9,82.6z"/>
		<path d="M532.8,79.6c-2.6,0.6-5.4,1-6.6,1.2c-1,0.2-1.9,0.4-2.5,0.6c-1.3,2.8-4.6,10.8-6.1,14.3c2.3-0.7,4.1-1.4,6.4-1.4
			c3.3-0.1,5.8,1.9,5.6,3c-0.5,1.4-3.2,2.6-4.6,2.6c-0.1,0-0.3,0-0.4,0c-2.1,0-6.6,1.4-8.9,2c0,0.2-0.1,0.6-0.2,1.1
			c-0.1,0.8-0.4,1.7-0.5,2.5c-0.1,0.5-0.2,0.9-0.3,1c1-0.1,1.9-0.4,2.8-0.6c1.5-0.4,3.2-0.8,4.2-0.8c1.6,0,5.4,1.5,5.2,2.5
			c-0.4,2.1-8.7,3.8-10.5,4.2c-1.3,0.3-2.8,0.9-4.1,0.9c-1,0-2.2-0.4-2.8-1.5c-0.8-1.8-0.6-4.8,0-7.8c1-4.7,3.1-10.4,5-15
			c1.8-4.4,3.4-7.7,3.5-8.1c0.1-0.6-0.1-1.2,0-2c0.1-0.6,0.6-1.7,2-1.9c2.6-0.4,5.2-0.9,7.5-1.4c2.2-0.5,4.3-0.8,5.7-0.8
			c1.1,0,5.5,1.3,5,3.4C538.1,78.1,535.6,79,532.8,79.6z"/>
		<path d="M563.6,85.7c-1.5,0.8-11.8,6.7-17.6,10.4c2.3,1.2,4.9,2.1,7.3,3.2c1,0.5,2.1,1.2,1.8,2.7s-1.3,2.1-2.6,2.1
			c-1.2,0-3-0.4-3.7-0.6c-1.1-0.4-4.6-2.4-7-3.7c-0.5,2.1-1.5,5.6-1.7,6.4c-0.3,1.2-1.6,1.5-2.2,1.5c-1.2,0-3.4-0.8-3.7-2.2
			c0-0.2,0-0.7,0.1-1.3c0.9-4.2,6.3-22.2,8.2-25.9c0.7-1.2,2-1.5,2.7-1.5c1.1,0,3.8,1,3.5,2.6c-0.2,1-2.8,7.9-4,11.8
			c4.2-2.8,12.6-8.7,17.3-8.9c1.1,0,2.8,1.2,2.5,2.5C564.4,85,564.1,85.4,563.6,85.7z"/>
	</g>
	<g>
		<path d="M589.9,69.1c-1.7,3.5-6.2,7.3-10.8,7.3c-3.6,0-6.3-2.1-7.6-4.2c-0.6-1-1.1-2.4-1.3-4.1c-0.7-6,2.4-14.2,9.3-15.2
			c0.2,0,0.3,0,0.4,0c0.6,0,0.9,0.2,1.3,0.5c0.6-0.7,1.7-0.9,2.6-0.9s2.5,0.3,3.6,0.9c1.1,0.7,2.1,1.5,2.9,3.5
			c0.4,1.1,0.7,2.2,0.9,3.5C591.6,63.1,591.2,66.3,589.9,69.1z M586.1,55.9c-0.4-0.8-1.3-1.2-2.3-1.2c-0.4,0-0.9,0.1-1.3,0.2
			c-6.7,2.2-9.6,7-8.8,13.8c0.2,1.8,0.7,3.2,1.1,3.8c0.4,0.6,1.6,1.2,2.4,1.2c4.2,0,7.6-3.5,9.2-6.7c1.1-2.3,1.2-4.8,1-6.9
			C587.2,58.3,586.6,56.8,586.1,55.9z M581.6,66.8c0.6,0.4,1.2,0.8,1.9,1.2c0.3,0.2,0.6,0.5,0.6,0.9c0.1,1-1.1,1.4-1.7,1.4
			c-1,0-2.3-1.1-3.1-1.7c0.1,0.3,0.1,0.5,0.2,0.7c0.1,0.9-0.6,1.3-1.3,1.3c-0.5,0-1.2-0.3-1.7-0.9c-0.4-0.7-0.9-2.2-1.1-3.7
			c0-0.4-0.1-0.9-0.1-1.3c-0.1-2.3,0.6-5.4,1-5.5c1.1-0.2,2.1-0.2,3.2-0.2c1.7,0,3.2,0.2,3.9,0.4c1.1,0.4,2.9,1.4,3.1,2.9
			C586.8,64.4,583.1,66.2,581.6,66.8z M580.2,61.9c-0.4,0-0.8,0-1.1,0c-0.2,0.7-0.3,1.5-0.3,2.3c1.9-0.7,2.5-1.2,4.2-2.1
			C582.4,62,581.4,61.9,580.2,61.9z"/>
	</g>
	<g>
		<path d="M559.8,106.4c-1.6,0.1-2-1.6-1.8-2.6c0.1-0.6,0.5-1.3,1.2-1.8c0.7-0.5,1.7-0.8,2.4-0.8c1.2,0,2.5,0.6,2.2,1.9
			C563.6,104.4,561.7,106.4,559.8,106.4z"/>
		<path d="M583.8,87.7c-1.7,0.4-12.3,7.9-13.5,13.5c0,0.2,0.1,0.7,0.4,0.7c1.7,0,6.4-2.4,7.8-3.9c0.4-0.4,0.8-0.5,1.2-0.5
			c0.8,0,1.3,0.6,1.2,1.6c-0.5,2.2-6.6,5.1-9,5.9c-0.5,0.2-1,0.2-1.5,0.2c-2.9,0-4.5-1.9-4-4.7c1-4.5,10.4-15.5,16.6-15.5
			c1,0,2,0.6,1.9,1.6C584.8,87.2,584.3,87.6,583.8,87.7z"/>
		<path d="M597.1,95.1c-1,3.3-5.6,7.2-9,7.2c-3.1,0-4.5-2.5-4-5.1c0.7-3.1,4.6-8.5,9.2-8.5c0.6,0,1.4,0.1,1.9,0.7
			c1.3,0.1,3,1,2.2,4.4C597.4,94.2,597.3,94.7,597.1,95.1z M593.5,92.4c-2.2,0-5.7,3.4-6.1,5.3c-0.1,0.5,0,0.8,0.5,0.8
			c1.1,0,3-1,3.8-1.9c1.1-1.1,2.2-3.2,2.5-4.1l0,0C593.9,92.5,593.7,92.4,593.5,92.4z"/>
		<path d="M624,100c-0.5,0.9-2.6,1.7-3.4,1.7c-0.2,0-0.8-0.1-0.9-0.6c-0.1-1.3-0.2-2.7-0.2-3.9c0-0.6,0-1.1,0-1.5
			c-1.7,1-6.3,4.9-7.6,6c-0.6,0.5-1.4,0.7-2,0.7c-0.8,0-1.7-0.3-2-0.8c-0.4-0.7,0.4-6.5,0.6-7.8c-3,3-6.1,6.6-7.6,8.2
			c-0.5,0.5-1.4,0.7-1.9,0.7c-0.7,0-1.4-0.4-1.2-1.1c0-0.1,0-0.2,0.1-0.2c0.6-1.1,10.4-12.6,11.8-13.8c0.9-0.8,2.1-1.4,3-1.4
			c0.7,0,1.2,0.4,1.2,1.2c0,1.6-1.1,6.1-1.3,10c2.4-1.9,5.5-4.3,6.5-5.1c1-0.8,2.6-1.6,3.6-1.6c0.3,0,0.6,0.1,0.9,0.3
			c0.7,0.6,1.1,6.6,0.7,8.4C624.1,99.6,624.1,99.8,624,100z"/>
	</g>
	<rect x="19.1" y="22.4" class="st12" width="18.3" height="86"/>
	<path class="st13" d="M41.3,108.4v-86h1.6c2.9,0,5.5,0.9,7.9,2.6c2.3,1.7,4.1,4.2,5.4,7.4c0.8,2,1.4,4.4,1.9,7.1
		c0.5,2.8,0.9,6,1.1,9.4c0.2,3.6,0.4,7.6,0.4,12.1v47.3H41.3V108.4z"/>
	<path class="st14" d="M81.9,108.4H63.5V54.9c0-6.2-0.5-12.1-1.5-17.5c-0.4-2.5-0.8-4.5-1.3-5.8c-0.4-1.4-1-3.1-1.8-4.9
		c1.1-1.4,2.2-2.5,3.4-3.1c1.3-0.7,2.8-1.1,4.4-1.1C76.9,22.5,82,33.6,82,55.8v52.6H81.9z"/>
	<path class="st6" d="M106.2,22.4v86h-2c-3.1,0-6-2-8.6-5.9s-4.7-9.1-6.3-15.7C87.7,80.2,87,73.1,87,65.4c0-6.1,0.4-11.8,1.3-17.1
		s2.1-9.9,3.7-13.7s3.5-6.8,5.7-9c2.1-2.1,4.5-3.2,7.1-3.2C104.8,22.4,106.2,22.4,106.2,22.4z"/>
	<path class="st15" d="M128,111.1v18.4H51.5c-6.2,0-12.1,0.5-17.5,1.5c-2.5,0.4-4.5,0.8-5.8,1.3c-1.4,0.4-3.1,1-4.9,1.8
		c-1.4-1.1-2.5-2.2-3.1-3.4c-0.7-1.3-1.1-2.8-1.1-4.4c0-10.2,11.1-15.3,33.3-15.3H105L128,111.1z"/>
	<path class="st7" d="M109.7,108.4v-86h1.6c2.9,0,5.5,0.9,7.9,2.6c2.3,1.7,4.1,4.2,5.4,7.4c0.8,2,1.4,4.4,1.9,7.1
		c0.5,2.8,0.9,6,1.1,9.4c0.2,3.6,0.4,7.6,0.4,12.1v47.3h-18.3C109.7,108.3,109.7,108.4,109.7,108.4z"/>
	<path class="st16" d="M128,136.9H31v-0.4c0-0.8,0.9-1.5,2.6-2.2c1.7-0.6,4.2-1.1,7.4-1.5c2-0.2,4.4-0.4,7.1-0.5
		c2.8-0.1,6-0.2,9.4-0.3c3.6-0.1,7.6-0.1,12.1-0.1h58.3L128,136.9L128,136.9z"/>
</g>
</svg>
