<?xml version="1.0" encoding="utf-8"?>
<!-- Generator: Adobe Illustrator 25.0.0, SVG Export Plug-In . SVG Version: 6.00 Build 0)  -->
<svg version="1.1" xmlns="http://www.w3.org/2000/svg" xmlns:xlink="http://www.w3.org/1999/xlink" x="0px" y="0px"
	 viewBox="0 0 634 184" style="enable-background:new 0 0 634 184;" xml:space="preserve">
<style type="text/css">
	.st0{fill:#FFC000;}
	.st1{fill:#7307C4;}
	.st2{fill:#07B86C;}
	.st3{fill:#3DE33D;}
	.st4{fill:#C40773;}
	.st5{fill:#26A3D7;}
	.st6{display:none;}
	.st7{display:inline;}
	.st8{fill:#E33D3D;}
	.st9{fill:#C47307;}
	.st10{fill:#3D3DE3;}
	.st11{fill:#565656;}
</style>
<g id="Ebene_1">
	<path class="st0" d="M94.2,48.5H68.4V25h25.9c6.5,0,11.8,5.3,11.8,11.8v0C106,43.3,100.7,48.5,94.2,48.5z"/>
	<path class="st1" d="M54.2,48.5h-9.4V34.4c0-5.2,4.2-9.4,9.4-9.4h0c5.2,0,9.4,4.2,9.4,9.4v4.7C63.6,44.3,59.4,48.5,54.2,48.5z"/>
	<path class="st2" d="M51.9,105H37.8C31.3,105,26,99.7,26,93.2v0c0-6.5,5.3-11.8,11.8-11.8h25.9v11.8C63.6,99.7,58.4,105,51.9,105z"
		/>
	<path class="st3" d="M63.6,76.8H50.4c-8.3,0-15-6.7-15-15v-8.5h13.2c8.3,0,15,6.7,15,15V76.8z"/>
	<g>
		<path d="M190.9,69.2c-0.5,0-1.2-0.1-1.7-0.4c-0.4-0.3-1.3-0.6-3-0.6c-8.9,0-28.5,6.6-33.5,10.4c0.5,0.2,1.4,0.4,2.6,0.6
			c3.4,0.7,16.4,3.7,18.4,5.1c1,0.7,3.2,3.9,2.6,6.7c-0.2,1.1-0.9,2.2-2.2,3c-3,1.9-17,7.3-20,7.3c-2.7,0-7.3-2.1-6.8-4
			c0.1-0.4,0.4-0.9,0.7-1.2c2.3-2.3,19.7-4.9,20.5-6.6c-0.1-0.1-0.2,0-0.4-0.1c-0.4-0.1-1-0.2-1.7-0.4c-5.3-1.5-18.4-2.7-21.3-7.2
			c-0.6-0.9-0.5-2.6-0.2-3.9c0.4-1.8,1.4-4.4,3.3-5.8c4.5-3.2,25-11.6,38.4-11.6c4.3,0,7.6,1.3,9.4,4.8c0.1,0.3,0.2,0.6,0.1,1.1
			C195.9,67.8,192.7,69.2,190.9,69.2z"/>
		<path d="M232.7,54.9c-0.9,0.4-1.9,0.5-2.8,0.7c-3.4,0.6-6.8,1.2-10.1,1.7c-1.2,0.1-1.9,0.3-2.2,0.5c-1.3,1.6-13.8,36.9-15.7,42
			c-1.7,4.5-2.9,8-3.2,8.6c-0.4,0.8-1.8,1.5-3.3,1.5c-2.8,0-5.2-1.9-4.5-4.9c0.6-2.8,5-14.8,9.2-26c3.1-8.1,6.1-16,7.6-19.7
			c-2.9,0.6-5.8,1.4-8.6,1.4c-2.4-0.1-6-2.3-5.5-4.7c0.6-3,5.3-2.4,7.1-2.7c2.7-0.4,5.9-1.5,10.7-2.5c4.9-0.9,11.3-1.9,20.2-1.9
			c1.9,0,3.7,1.3,3.3,3.3C234.6,53.7,233.6,54.4,232.7,54.9z"/>
		<path d="M249.2,78.9c-2.3,7.3-12.5,16.2-20.2,16.2c-7.1,0-10.2-5.7-9-11.4c1.5-7.1,10.4-19.1,20.7-19.1c1.3,0,3.2,0.1,4.2,1.5
			c3,0.1,6.7,2.2,5,9.9C249.9,76.9,249.6,77.9,249.2,78.9z M241,72.9c-5,0-12.9,7.6-13.8,11.9c-0.2,1.2,0,1.8,1.2,1.8
			c2.4,0,6.8-2.3,8.6-4.2c2.4-2.4,5-7.2,5.5-9.1l0.1-0.1C242,72.9,241.5,72.9,241,72.9z"/>
		<path d="M273.2,88.3c2.6,1.9,6,4.2,9,6.4c0.4,0.4,0.9,0.9,0.7,1.8c-0.4,1.5-3.6,3.1-6,3.1c-2.2,0-3.7-1.3-5.2-2.4
			c-2.4-1.9-4.7-4-7.3-5.5c-0.4,2.3-0.4,5.3-0.6,6.3c-0.4,2.2-3,2.9-4.6,2.9c-1.4,0-3.2-0.6-3.9-2.2c-0.7-2.1-0.4-7.2,0.7-12.5
			c0.3-1.5,0.7-3.1,1.2-4.7c2.3-7.4,7.5-17.9,8.7-18.1c4.5-0.5,8.8-0.7,12.7-0.7c6.7,0,12.2,0.6,14.5,1.5c4,1.4,8.7,4.8,7.8,8.8
			C299.6,79.6,278.9,86.6,273.2,88.3z M278.5,68.9c-2,0-4.1,0.1-6,0.2c-2.1,3.6-4.7,9.4-5.9,13.9c7.2-2,24.1-8.8,25.1-12
			C290.6,69.9,285.2,68.9,278.5,68.9z"/>
		<path d="M322.1,79.2c-1.4,1.2-6.8,23.5-8.9,25.5c-0.8,0.7-1.7,1-2.4,1c-1.7,0-3.8-1.9-4.6-2.7c-0.3-0.3-0.4-1.3-0.1-2.5
			c1-4.9,6.2-20.3,7.3-23.5c-1.6-3.1-7.2-15.8-6.8-17.9c0.4-2.1,3.5-3.5,4.2-2.6c2.9,3.7,5.7,10.7,7.5,14.4c0.6-0.5,1.2-1.1,1.7-1.7
			c1.4-1.3,3-3.1,4.8-4.9c3.3-3.5,7.3-7.6,9.4-9c1.6-1.1,3.2-1.6,4.5-1.6s3.4,0.7,2.9,2.8C340.8,59.8,324.2,77.4,322.1,79.2z"/>
		<path d="M369.4,68.2c-0.9,0.3-1.7,0.4-2.7,0.5c-4.8,0.6-10.2,0.9-15,2.2c-3.2,5.6-5.2,10.9-6,13.9c3.3-0.6,6.8-1.9,10.1-1.9
			c1.9,0,6.6,1.5,6,4.5c-0.5,2.2-3,2.4-4.7,2.7c-4.5,0.8-9.2,1.2-13.8,2.4c-0.6,2-2.4,7.3-3.6,8.9c-0.9,1.2-2.8,2.7-4.8,2.7
			c-0.4,0-0.9-0.1-1.3-0.3c-1.2-0.6-1.6-2.9-0.6-7.7c0.4-2.1,1.2-4.8,2.1-8.3c1.2-4,9.3-23.1,10.4-23.4c7.1-1.8,15.7-3.4,19.5-3.4
			c2.5,0,5.1,0.9,6.2,3.1c0.4,0.8,0.5,1.4,0.4,1.9C371.4,67.2,370.4,67.8,369.4,68.2z"/>
		<path d="M398.8,99.4c-1.9,0-4.2-0.9-4.8-2.4c-0.5-1.3,0.1-7.6,0.3-9.6c-7,1.8-16.4,3-19.2,3.3c-3.6,4.3-6.6,8.9-9.9,13.4
			c-0.9,1.2-1.7,2-2.1,2.4c-0.9,1-3.6,1.7-4.9,1.7c-1.4,0-2.4-0.8-2-2.1c2.1-7.7,33.1-46.3,35.2-47.5c2.2-1.2,4.6-1.7,6.5-1.7
			c1.4,0,3.2,0.4,3.9,1.6c2.8,5.2,3.2,30.6,1.8,37.1C403,98.1,401.4,99.4,398.8,99.4z M394,65.5c-1.9,1.9-7.6,9.3-12.8,16.6
			c6.5-2.1,10.9-2.9,13.4-3.1C394.4,75.3,394.2,67.6,394,65.5z"/>
		<path d="M455.3,69.6c-2.1,1.1-17,9.6-25.3,14.9c3.3,1.8,7.1,3.1,10.5,4.7c1.5,0.7,3,1.7,2.6,3.8c-0.4,2.1-1.9,3-3.7,3
			c-1.7,0-4.3-0.5-5.3-0.9c-1.6-0.6-6.6-3.4-10-5.3c-0.8,3.1-2.2,8.1-2.4,9.1c-0.4,1.7-2.3,2.1-3.1,2.1c-1.8,0-4.8-1.2-5.3-3.2
			c-0.1-0.3-0.1-1,0.1-1.9c1.3-6,9-32,11.8-37.3c1-1.8,2.9-2.1,3.8-2.1c1.6,0,5.4,1.5,5,3.7c-0.4,1.4-4,11.3-5.8,16.9
			c6-4,18.1-12.5,24.8-12.8c1.6-0.1,4,1.8,3.6,3.6C456.4,68.6,456,69.2,455.3,69.6z"/>
		<path d="M497.7,54.9c-0.9,0.4-1.9,0.5-2.8,0.7c-3.4,0.6-6.8,1.2-10.1,1.7c-1.2,0.1-1.9,0.3-2.2,0.5c-1.3,1.6-13.8,36.9-15.7,42
			c-1.7,4.5-2.9,8-3.2,8.6c-0.4,0.8-1.8,1.5-3.3,1.5c-2.8,0-5.2-1.9-4.5-4.9c0.6-2.8,5-14.8,9.2-26c3.1-8.1,6.1-16,7.6-19.7
			c-2.9,0.6-5.8,1.4-8.6,1.4c-2.4-0.1-6-2.3-5.5-4.7c0.6-3,5.3-2.4,7.1-2.7c2.7-0.4,5.9-1.5,10.7-2.5c4.9-0.9,11.3-1.9,20.2-1.9
			c1.9,0,3.7,1.3,3.3,3.3C499.6,53.7,498.6,54.4,497.7,54.9z"/>
		<path d="M514.3,78.9c-2.3,7.3-12.5,16.2-20.2,16.2c-7.1,0-10.2-5.7-9-11.4c1.5-7.1,10.4-19.1,20.7-19.1c1.3,0,3.2,0.1,4.2,1.5
			c3,0.1,6.7,2.2,5,9.9C514.9,76.9,514.6,77.9,514.3,78.9z M506.1,72.9c-5,0-12.9,7.6-13.8,11.9c-0.2,1.2,0,1.8,1.2,1.8
			c2.4,0,6.8-2.3,8.6-4.2c2.4-2.4,5-7.2,5.5-9.1l0.1-0.1C507.1,72.9,506.6,72.9,506.1,72.9z"/>
		<path d="M538.2,88.3c2.6,1.9,6,4.2,9,6.4c0.4,0.4,0.9,0.9,0.7,1.8c-0.4,1.5-3.6,3.1-6,3.1c-2.2,0-3.7-1.3-5.2-2.4
			c-2.4-1.9-4.7-4-7.3-5.5c-0.4,2.3-0.4,5.3-0.6,6.3c-0.4,2.2-3,2.9-4.6,2.9c-1.4,0-3.2-0.6-3.9-2.2c-0.7-2.1-0.4-7.2,0.7-12.5
			c0.3-1.5,0.7-3.1,1.2-4.7c2.3-7.4,7.5-17.9,8.7-18.1c4.5-0.5,8.8-0.7,12.7-0.7c6.7,0,12.2,0.6,14.5,1.5c4,1.4,8.7,4.8,7.8,8.8
			C564.6,79.6,543.9,86.6,538.2,88.3z M543.5,68.9c-2,0-4.1,0.1-6,0.2c-2.1,3.6-4.7,9.4-5.9,13.9c7.2-2,24.1-8.8,25.1-12
			C555.6,69.9,550.3,68.9,543.5,68.9z"/>
	</g>
	<circle class="st4" cx="80.4" cy="93" r="12"/>
	<g>
		<path d="M588.2,59.1c-1.7,3.5-6.2,7.3-10.8,7.3c-3.6,0-6.3-2.1-7.6-4.2c-0.6-1-1.1-2.4-1.3-4.1c-0.7-6,2.4-14.2,9.3-15.2
			c0.2,0,0.3,0,0.4,0c0.6,0,0.9,0.2,1.3,0.5c0.6-0.7,1.7-0.9,2.6-0.9s2.5,0.3,3.6,0.9c1.1,0.7,2.1,1.5,2.9,3.5
			c0.4,1.1,0.7,2.2,0.9,3.5C589.9,53.2,589.6,56.3,588.2,59.1z M584.5,45.9c-0.4-0.8-1.3-1.2-2.3-1.2c-0.4,0-0.9,0.1-1.3,0.2
			c-6.7,2.2-9.6,7-8.8,13.8c0.2,1.8,0.7,3.2,1.1,3.8c0.4,0.6,1.6,1.2,2.4,1.2c4.2,0,7.6-3.5,9.2-6.7c1.1-2.3,1.2-4.8,1-6.9
			C585.5,48.3,585,46.8,584.5,45.9z M580,56.9c0.6,0.4,1.2,0.8,1.9,1.2c0.3,0.2,0.6,0.5,0.6,0.9c0.1,1-1.1,1.4-1.7,1.4
			c-1,0-2.3-1.1-3.1-1.7c0.1,0.3,0.1,0.5,0.2,0.7c0.1,0.9-0.6,1.3-1.3,1.3c-0.5,0-1.2-0.3-1.7-0.9c-0.4-0.7-0.9-2.2-1.1-3.7
			c0-0.4-0.1-0.9-0.1-1.3c-0.1-2.3,0.6-5.4,1-5.5c1.1-0.2,2.1-0.2,3.2-0.2c1.7,0,3.2,0.2,3.9,0.4c1.1,0.4,2.9,1.4,3.1,2.9
			C585.2,54.4,581.5,56.2,580,56.9z M578.6,51.9c-0.4,0-0.8,0-1.1,0c-0.2,0.7-0.3,1.5-0.3,2.3c1.9-0.7,2.5-1.2,4.2-2.1
			C580.8,52,579.7,51.9,578.6,51.9z"/>
	</g>
	<g>
		<path d="M558.2,101.4c-1.6,0.1-2-1.6-1.8-2.6c0.1-0.6,0.5-1.3,1.2-1.8c0.7-0.5,1.7-0.8,2.4-0.8c1.2,0,2.5,0.6,2.2,1.9
			C561.9,99.4,560.1,101.4,558.2,101.4z"/>
		<path d="M567.7,99.3c-0.3,0.1-0.5,0.1-0.8,0.1c-1.2,0-1.4-0.9-1.2-1.7c0.1-0.4,0.2-0.8,0.4-1.3c-0.2-0.7,0-1.7,0.2-2.8
			c0.6-2.9,2.2-7.4,3.6-10c-0.6-0.5-1.3-1.3-1.2-1.7c0.1-0.4,0.5-0.9,1.3-0.9c1.9-0.1,3.8-0.2,5.7-0.2c6,0,11.9,0.6,13.5,1.7
			c1.2,0.9,2.4,2,2,3.9C590.2,91.4,568.3,99.1,567.7,99.3z M587.4,85.2c-1.2-0.7-7.2-1.3-11.2-1.3c-1.6,0-2.5,0.1-2.8,0.2
			c-0.1,0-2,4.6-2.8,8.5c-0.1,0.6-0.3,1.2-0.3,1.7c2.3-0.9,16.7-6.3,17.2-8.8C587.6,85.3,587.6,85.2,587.4,85.2z"/>
		<path d="M606.3,82.1c-1.7,0.4-3.5,0.6-4.2,0.8c-0.7,0.1-1.2,0.3-1.6,0.4c-0.8,1.8-2.9,6.9-3.9,9.1c1.5-0.4,2.6-0.9,4.1-0.9
			c2.1,0,3.7,1.2,3.6,1.9c-0.4,0.9-2,1.6-2.9,1.6c-0.1,0-0.2,0-0.3,0c-1.3,0-4.2,0.9-5.7,1.3c0,0.2-0.1,0.4-0.2,0.7
			c-0.1,0.5-0.3,1.1-0.4,1.6c-0.1,0.3-0.2,0.5-0.2,0.7c0.6-0.1,1.2-0.3,1.8-0.4c0.9-0.2,2.1-0.5,2.7-0.5c1,0,3.4,0.9,3.3,1.6
			c-0.3,1.4-5.5,2.4-6.7,2.7c-0.8,0.2-1.8,0.6-2.6,0.6c-0.7,0-1.4-0.2-1.8-1c-0.5-1.2-0.4-3,0-5c0.6-3,2-6.7,3.2-9.6
			c1.2-2.8,2.2-4.9,2.3-5.2c0.1-0.4-0.1-0.8,0-1.3c0.1-0.4,0.4-1.1,1.2-1.2c1.7-0.3,3.3-0.6,4.8-0.9c1.4-0.3,2.8-0.5,3.6-0.5
			c0.7,0,3.6,0.8,3.2,2.1C609.7,81.2,608.1,81.7,606.3,82.1z"/>
	</g>
	<rect x="68.4" y="53.2" class="st5" width="28.2" height="23.5"/>
</g>
<g id="Ebene_2" class="st6">
	<g class="st7">
		<rect x="304" y="270" class="st1" width="4" height="4"/>
		<rect x="299" y="270" class="st4" width="4" height="4"/>
		<rect x="294" y="270" class="st8" width="4" height="4"/>
		<rect x="294" y="275" class="st9" width="4" height="4"/>
		<rect x="299" y="275" class="st5" width="4" height="4"/>
		<rect x="304" y="275" class="st10" width="4" height="4"/>
		<rect x="294" y="280" class="st0" width="4" height="4"/>
		<rect x="299" y="280" class="st3" width="4" height="4"/>
		<rect x="304" y="280" class="st2" width="4" height="4"/>
	</g>
</g>
<g id="Ebene_3">
	<g>
		<path class="st11" d="M283.5,140v11.6c0,1.6,0.3,3.1,2.3,3.1s2.3-1.5,2.3-3.1V140h1.6v12.1c0,2.5-1.6,4.1-3.9,4.1
			c-2.4,0-3.9-1.7-3.9-4V140H283.5z M284.7,137.7c0,0.7-0.4,1.5-1.2,1.5s-1.2-0.8-1.2-1.5c0-0.7,0.4-1.5,1.2-1.5
			S284.7,137,284.7,137.7z M289.1,137.7c0,0.7-0.4,1.5-1.2,1.5c-0.8,0-1.2-0.8-1.2-1.5c0-0.7,0.4-1.5,1.2-1.5
			C288.8,136.2,289.1,137,289.1,137.7z"/>
		<path class="st11" d="M295.9,156v-1.4h1.3V145h-1.3v-1.4h3.9c3.2,0,4.5,1.2,4.5,3.3c0,1.1-0.5,2-1.4,2.6c1.4,0.4,2.1,1.6,2.1,3
			c0,2.3-1.5,3.6-4.1,3.6H295.9z M300.6,148.9c1.4,0,2.1-0.9,2.1-2c0-1.5-1.1-1.9-2.2-1.9h-1.7v3.9H300.6z M300.7,154.6
			c1.4,0,2.7-0.3,2.7-2c0-1.2-0.8-2.3-2.4-2.3h-2.3v4.3H300.7z"/>
		<path class="st11" d="M311.2,143.5h7.8v1.4h-6.2v3.7h5.1v1.4h-5.1v4.4h6.2v1.4h-7.8V143.5z"/>
		<path class="st11" d="M325.4,143.5h4.2c2.1,0,3.7,1,3.7,3.4c0,1.5-1,3-2.5,3.5l3.1,5.1l-1.4,0.8l-3.2-5.7H327v5.4h-1.6V143.5z
			 M329.1,149.2c1.6,0,2.6-0.9,2.6-2.3c0-1.1-0.7-2-2.1-2H327v4.3H329.1z"/>
		<path class="st11" d="M362,154.8c-1,0.8-2.4,1.4-3.7,1.4c-4.1,0-4.8-5-4.8-8.2c0-3,0.7-8.3,4.7-8.3c1.8,0,3.1,1.1,4,2.6l-1.4,0.9
			c-0.6-1-1.4-1.9-2.7-1.9c-2.7,0-2.9,4.9-2.9,6.8c0,5.5,1.6,6.6,3.2,6.6c0.7,0,1.5-0.3,2.1-0.7v-4.8h-3v-1.4h4.6V154.8z"/>
		<path class="st11" d="M368.8,143.5h7.8v1.4h-6.2v3.7h5.1v1.4h-5.1v4.4h6.2v1.4h-7.8V143.5z"/>
		<path class="st11" d="M384,152.1c0.3,1.5,1.1,2.7,2.7,2.7c1.3,0,2.4-0.7,2.4-2.1c0-1.5-1.3-1.9-2.5-2.4c-1.8-0.8-3.6-1.2-3.6-3.6
			c0-2.1,1.7-3.3,3.7-3.3c2.1,0,3.3,1.2,3.8,3.1l-1.5,0.5c-0.3-1.2-0.9-2.1-2.3-2.1c-1,0-2,0.5-2,1.7c0,1.2,0.7,1.5,1.7,1.9l2.7,1.2
			c1.1,0.6,1.7,1.6,1.7,2.9c0,2.4-1.7,3.7-4,3.7c-2.3,0-3.8-1.5-4.2-3.7L384,152.1z"/>
		<path class="st11" d="M405.5,153.6c-1,1.6-2.2,2.6-4.2,2.6c-3.6,0-4.8-3.4-4.8-6.5c0-5,2.6-6.5,4.7-6.5c1.9,0,3.1,1,4,2.7
			l-1.5,0.7c-0.5-1-1.2-1.9-2.5-1.9c-2.5,0-3,3-3,4.9c0,1.9,0.5,5,3,5c1.5,0,2.2-0.9,3-2L405.5,153.6z"/>
		<path class="st11" d="M411.3,143.5h1.6v5.2h4.9v-5.2h1.6V156h-1.6v-5.9h-4.9v5.9h-1.6V143.5z"/>
		<path class="st11" d="M427.2,154.6h1.8V145h-1.8v-1.4h5.1v1.4h-1.8v9.6h1.8v1.4h-5.1V154.6z"/>
		<path class="st11" d="M448.7,153.6c-1,1.6-2.2,2.6-4.2,2.6c-3.6,0-4.8-3.4-4.8-6.5c0-5,2.6-6.5,4.7-6.5c1.9,0,3.1,1,4,2.7
			l-1.5,0.7c-0.5-1-1.2-1.9-2.5-1.9c-2.5,0-3,3-3,4.9c0,1.9,0.5,5,3,5c1.5,0,2.2-0.9,3-2L448.7,153.6z"/>
		<path class="st11" d="M454.5,143.5h1.6v5.2h4.9v-5.2h1.6V156h-1.6v-5.9h-4.9v5.9h-1.6V143.5z"/>
		<path class="st11" d="M472.2,145h-3.5v-1.4h8.4v1.4h-3.4V156h-1.6V145z"/>
		<path class="st11" d="M484,143.5h7.8v1.4h-6.2v3.7h5.1v1.4h-5.1v4.4h6.2v1.4H484V143.5z"/>
		<path class="st11" d="M497.6,143.5h2l4.8,10.5l0,0l-0.1-3.2v-7.2h1.6V156h-2l-4.8-10.5l0,0l0.1,3.3v7.2h-1.6V143.5z"/>
		<path class="st11" d="M527.3,143.2l1,8.8h0l2.1-6.1h0.4l2.1,6.1h0l1-8.8l1.6,0.2l-1.8,12.9h-0.6l-2.6-7.7l-2.6,7.7h-0.6l-1.8-12.9
			L527.3,143.2z"/>
		<path class="st11" d="M542.4,154.6h1.8V145h-1.8v-1.4h5.1v1.4h-1.8v9.6h1.8v1.4h-5.1V154.6z"/>
		<path class="st11" d="M555.8,143.5h4.2c2.1,0,3.7,1,3.7,3.4c0,1.5-1,3-2.5,3.5l3.1,5.1l-1.4,0.8l-3.2-5.7h-2.3v5.4h-1.6V143.5z
			 M559.5,149.2c1.6,0,2.6-0.9,2.6-2.3c0-1.1-0.7-2-2.1-2h-2.6v4.3H559.5z"/>
		<path class="st11" d="M572.1,148.8h0.6l4.3-5.6l1.2,1l-4.2,5.3l4.9,5.9l-1.2,1l-5.1-6.2h-0.6v5.9h-1.6v-12.5h1.6V148.8z"/>
		<path class="st11" d="M584.7,143.5h7.8v1.4h-6.2v3.7h5.1v1.4h-5.1v4.4h6.2v1.4h-7.8V143.5z"/>
		<path class="st11" d="M598.4,143.5h2l4.8,10.5l0,0l-0.1-3.2v-7.2h1.6V156h-2l-4.8-10.5l0,0l0.1,3.3v7.2h-1.6V143.5z"/>
	</g>
</g>
</svg>
