<?xml version="1.0" encoding="utf-8"?>
<!-- Generator: Adobe Illustrator 25.0.0, SVG Export Plug-In . SVG Version: 6.00 Build 0)  -->
<svg version="1.1" id="Ebene_1" xmlns="http://www.w3.org/2000/svg" xmlns:xlink="http://www.w3.org/1999/xlink" x="0px" y="0px"
	 viewBox="0 0 100 100" style="enable-background:new 0 0 100 100;" xml:space="preserve">
<style type="text/css">
	.st0{fill:#FFC000;}
	.st1{fill:#7307C4;}
	.st2{fill:#07B86C;}
	.st3{fill:#3DE33D;}
	.st4{fill:#C40773;}
	.st5{fill:#26A3D7;}
</style>
<path class="st0" d="M78.2,33.5H52.4V10h25.9C84.7,10,90,15.3,90,21.8v0C90,28.3,84.7,33.5,78.2,33.5z"/>
<path class="st1" d="M38.2,33.5h-9.4V19.4c0-5.2,4.2-9.4,9.4-9.4h0c5.2,0,9.4,4.2,9.4,9.4v4.7C47.6,29.3,43.4,33.5,38.2,33.5z"/>
<path class="st2" d="M35.9,90H21.8C15.3,90,10,84.7,10,78.2v0c0-6.5,5.3-11.8,11.8-11.8h25.9v11.8C47.6,84.7,42.4,90,35.9,90z"/>
<path class="st3" d="M47.6,61.8H34.4c-8.3,0-15-6.7-15-15v-8.5h13.2c8.3,0,15,6.7,15,15V61.8z"/>
<circle class="st4" cx="64.4" cy="78" r="12"/>
<rect x="52.4" y="38.2" class="st5" width="28.2" height="23.5"/>
</svg>
